<svg width="21" height="20" viewBox="0 0 21 20" fill="none" xmlns="http://www.w3.org/2000/svg">
<path d="M7.24067 5.58421C7.56333 5.46159 7.7255 5.10062 7.60289 4.77795C7.48027 4.45529 7.1193 4.29312 6.79663 4.41573C6.32101 4.59648 5.86117 4.89033 5.43098 5.31684C4.8857 5.85746 4.52242 6.47137 4.3194 7.12974C4.21768 7.45959 4.40262 7.80944 4.73247 7.91116C5.06232 8.01287 5.41218 7.82794 5.51389 7.49808C5.65553 7.03879 5.90961 6.60253 6.31107 6.2045C6.6263 5.89196 6.94008 5.69843 7.24067 5.58421Z" fill="#E2DAEC"/>
<path fill-rule="evenodd" clip-rule="evenodd" d="M18.1225 3.27964C17.0161 2.15144 15.7846 1.80242 14.628 1.88709C13.5027 1.96947 12.4893 2.45762 11.7491 2.92714C11.1654 3.29741 10.3345 3.29741 9.75084 2.92714C9.01066 2.45762 7.99725 1.96949 6.87195 1.88711C5.71537 1.80244 4.48379 2.15146 3.3775 3.27964C2.07143 4.61155 1.66167 6.25574 1.82621 7.91888C1.98886 9.56285 2.70997 11.234 3.67173 12.7149C4.63606 14.1996 5.86788 15.5327 7.10369 16.5006C8.31231 17.4473 9.62734 18.125 10.75 18.125C11.8726 18.125 13.1877 17.4473 14.3963 16.5006C15.6321 15.5327 16.8639 14.1996 17.8282 12.7149C18.79 11.234 19.5111 9.56285 19.6737 7.91888C19.8383 6.25574 19.4285 4.61155 18.1225 3.27964ZM12.4187 3.98268C13.0732 3.56748 13.8834 3.19495 14.7193 3.13376C15.5239 3.07485 16.3911 3.29936 17.23 4.15482C18.2326 5.17735 18.5646 6.43323 18.4298 7.79581C18.2931 9.17756 17.6738 10.6577 16.7799 12.034C15.8886 13.4063 14.7497 14.636 13.6255 15.5166C12.4741 16.4184 11.4399 16.875 10.75 16.875C10.0601 16.875 9.02586 16.4184 7.87447 15.5166C6.75026 14.636 5.61131 13.4063 4.72003 12.034C3.82618 10.6577 3.20684 9.17756 3.07014 7.79581C2.93533 6.43323 3.2673 5.17736 4.27 4.15483C5.10885 3.29937 5.97608 3.07487 6.78068 3.13377C7.61656 3.19496 8.42672 3.56749 9.08126 3.98269C10.0737 4.61223 11.4262 4.61223 12.4187 3.98268Z" fill="#E2DAEC"/>
<path d="M7.24067 5.58421C7.56333 5.46159 7.7255 5.10062 7.60289 4.77795C7.48027 4.45529 7.1193 4.29312 6.79663 4.41573C6.32101 4.59648 5.86117 4.89033 5.43098 5.31684C4.8857 5.85746 4.52242 6.47137 4.3194 7.12974C4.21768 7.45959 4.40262 7.80944 4.73247 7.91116C5.06232 8.01287 5.41218 7.82794 5.51389 7.49808C5.65553 7.03879 5.90961 6.60253 6.31107 6.2045C6.6263 5.89196 6.94008 5.69843 7.24067 5.58421Z" stroke="#E2DAEC"/>
<path fill-rule="evenodd" clip-rule="evenodd" d="M18.1225 3.27964C17.0161 2.15144 15.7846 1.80242 14.628 1.88709C13.5027 1.96947 12.4893 2.45762 11.7491 2.92714C11.1654 3.29741 10.3345 3.29741 9.75084 2.92714C9.01066 2.45762 7.99725 1.96949 6.87195 1.88711C5.71537 1.80244 4.48379 2.15146 3.3775 3.27964C2.07143 4.61155 1.66167 6.25574 1.82621 7.91888C1.98886 9.56285 2.70997 11.234 3.67173 12.7149C4.63606 14.1996 5.86788 15.5327 7.10369 16.5006C8.31231 17.4473 9.62734 18.125 10.75 18.125C11.8726 18.125 13.1877 17.4473 14.3963 16.5006C15.6321 15.5327 16.8639 14.1996 17.8282 12.7149C18.79 11.234 19.5111 9.56285 19.6737 7.91888C19.8383 6.25574 19.4285 4.61155 18.1225 3.27964ZM12.4187 3.98268C13.0732 3.56748 13.8834 3.19495 14.7193 3.13376C15.5239 3.07485 16.3911 3.29936 17.23 4.15482C18.2326 5.17735 18.5646 6.43323 18.4298 7.79581C18.2931 9.17756 17.6738 10.6577 16.7799 12.034C15.8886 13.4063 14.7497 14.636 13.6255 15.5166C12.4741 16.4184 11.4399 16.875 10.75 16.875C10.0601 16.875 9.02586 16.4184 7.87447 15.5166C6.75026 14.636 5.61131 13.4063 4.72003 12.034C3.82618 10.6577 3.20684 9.17756 3.07014 7.79581C2.93533 6.43323 3.2673 5.17736 4.27 4.15483C5.10885 3.29937 5.97608 3.07487 6.78068 3.13377C7.61656 3.19496 8.42672 3.56749 9.08126 3.98269C10.0737 4.61223 11.4262 4.61223 12.4187 3.98268Z" stroke="#E2DAEC"/>
</svg>
