<svg width="21" height="20" viewBox="0 0 21 20" fill="none" xmlns="http://www.w3.org/2000/svg">
<g clip-path="url(#clip0_316_1917)">
<path d="M3.05604 13.1829L3.76933 12.9511L3.05604 13.1829ZM2.13062 8.04281L2.85193 8.24827L2.13062 8.04281ZM5.99497 4.1378L5.55413 3.53104L5.99497 4.1378ZM2.22503 7.75226L2.92934 8.01002L2.22503 7.75226ZM5.57578 18.0648L5.15748 18.6873L5.57578 18.0648ZM5.32862 17.8852L4.86583 18.4754L5.32862 17.8852ZM18.4445 13.1829L17.7312 12.9511L18.4445 13.1829ZM16.1719 17.8852L16.6347 18.4754L16.1719 17.8852ZM15.9247 18.0648L16.343 18.6873L15.9247 18.0648ZM15.5055 4.1378L15.9464 3.53104L15.5055 4.1378ZM19.2755 7.75226L18.5712 8.01002L19.2755 7.75226ZM19.3699 8.04281L18.6486 8.24827L19.3699 8.04281ZM10.903 1.6693L10.8755 2.4188L10.903 1.6693ZM10.5975 1.6693L10.625 2.4188L10.5975 1.6693ZM9.08358 14.0996C8.66937 14.0996 8.33358 14.4353 8.33358 14.8496C8.33358 15.2638 8.66937 15.5996 9.08358 15.5996V14.0996ZM12.4169 15.5996C12.8311 15.5996 13.1669 15.2638 13.1669 14.8496C13.1669 14.4353 12.8311 14.0996 12.4169 14.0996V15.5996ZM3.76933 12.9511C3.33987 11.6294 3.03714 10.6944 2.87863 9.93742C2.72374 9.19769 2.72349 8.69918 2.85193 8.24827L1.40931 7.83735C1.18988 8.60773 1.22791 9.373 1.41048 10.2449C1.58943 11.0995 1.92335 12.1239 2.34275 13.4146L3.76933 12.9511ZM5.55413 3.53104C4.45614 4.32877 3.58386 4.96127 2.93674 5.54749C2.27658 6.14552 1.796 6.74228 1.52071 7.49451L2.92934 8.01002C3.09047 7.56973 3.38369 7.16657 3.9438 6.65916C4.51697 6.13994 5.31145 5.56146 6.4358 4.74457L5.55413 3.53104ZM2.85193 8.24827C2.87481 8.16793 2.90063 8.08846 2.92934 8.01002L1.52071 7.49451C1.4794 7.60739 1.44224 7.72175 1.40931 7.83735L2.85193 8.24827ZM10.7502 18.0231C9.36046 18.0231 8.3777 18.022 7.60881 17.9389C6.85741 17.8576 6.38323 17.7038 5.99407 17.4423L5.15748 18.6873C5.82234 19.1341 6.56191 19.3344 7.4475 19.4302C8.3156 19.5241 9.39306 19.5231 10.7502 19.5231V18.0231ZM2.34275 13.4146C2.76214 14.7054 3.09413 15.7305 3.45169 16.527C3.81645 17.3397 4.23549 17.9812 4.86583 18.4754L5.79141 17.2951C5.42246 17.0057 5.12964 16.6023 4.82015 15.9128C4.50346 15.2072 4.1988 14.2729 3.76933 12.9511L2.34275 13.4146ZM5.99407 17.4423C5.92474 17.3957 5.85714 17.3466 5.79141 17.2951L4.86583 18.4754C4.96043 18.5496 5.05771 18.6203 5.15748 18.6873L5.99407 17.4423ZM17.7312 12.9511C17.3017 14.2729 16.997 15.2072 16.6803 15.9128C16.3709 16.6023 16.078 17.0057 15.7091 17.2951L16.6347 18.4754C17.265 17.9812 17.684 17.3397 18.0488 16.527C18.4064 15.7305 18.7384 14.7054 19.1578 13.4147L17.7312 12.9511ZM10.7502 19.5231C12.1074 19.5231 13.1849 19.5241 14.053 19.4302C14.9386 19.3344 15.6782 19.1341 16.343 18.6873L15.5064 17.4423C15.1173 17.7038 14.6431 17.8576 13.8917 17.9389C13.1228 18.022 12.14 18.0231 10.7502 18.0231V19.5231ZM15.7091 17.2951C15.6434 17.3466 15.5758 17.3957 15.5064 17.4423L16.343 18.6873C16.4428 18.6203 16.5401 18.5496 16.6347 18.4754L15.7091 17.2951ZM15.0647 4.74457C16.1891 5.56146 16.9835 6.13994 17.5567 6.65916C18.1168 7.16657 18.41 7.56973 18.5712 8.01002L19.9798 7.49451C19.7045 6.74228 19.2239 6.14552 18.5638 5.54749C17.9166 4.96127 17.0444 4.32877 15.9464 3.53104L15.0647 4.74457ZM19.1578 13.4147C19.5771 12.1239 19.9111 11.0995 20.09 10.2449C20.2726 9.373 20.3106 8.60773 20.0912 7.83735L18.6486 8.24827C18.777 8.69918 18.7768 9.19769 18.6219 9.93742C18.4634 10.6944 18.1606 11.6294 17.7312 12.9511L19.1578 13.4147ZM18.5712 8.01002C18.5999 8.08846 18.6257 8.16793 18.6486 8.24827L20.0912 7.83735C20.0583 7.72175 20.0211 7.60739 19.9798 7.49451L18.5712 8.01002ZM15.9464 3.53104C14.8484 2.73331 13.9773 2.09917 13.2198 1.66488C12.447 1.22183 11.731 0.949174 10.9305 0.919809L10.8755 2.4188C11.344 2.43599 11.8181 2.59027 12.4737 2.96618C13.1447 3.35084 13.9403 3.92767 15.0647 4.74457L15.9464 3.53104ZM6.4358 4.74457C7.56016 3.92767 8.35584 3.35084 9.02677 2.96618C9.68243 2.59027 10.1565 2.43599 10.625 2.4188L10.57 0.919809C9.76953 0.949174 9.05346 1.22183 8.2807 1.66488C7.5232 2.09917 6.65211 2.73331 5.55413 3.53104L6.4358 4.74457ZM10.9305 0.919809C10.8104 0.915402 10.6901 0.915402 10.57 0.919809L10.625 2.4188C10.7085 2.41574 10.792 2.41574 10.8755 2.4188L10.9305 0.919809ZM9.08358 15.5996H12.4169V14.0996H9.08358V15.5996Z" fill="#E2DAEC"/>
</g>
<defs>
<clipPath id="clip0_316_1917">
<rect width="20" height="20" fill="white" transform="translate(0.75)"/>
</clipPath>
</defs>
</svg>
