<svg width="18" height="19" viewBox="0 0 18 19" fill="none" xmlns="http://www.w3.org/2000/svg">
<path d="M5.92301 9.67318C5.92301 9.85727 5.77378 10.0065 5.58968 10.0065C5.40559 10.0065 5.25635 9.85727 5.25635 9.67318C5.25635 9.48908 5.40559 9.33984 5.58968 9.33984C5.77378 9.33984 5.92301 9.48908 5.92301 9.67318ZM9.25635 9.67318C9.25635 9.85727 9.10711 10.0065 8.92301 10.0065C8.73892 10.0065 8.58968 9.85727 8.58968 9.67318C8.58968 9.48908 8.73892 9.33984 8.92301 9.33984C9.10711 9.33984 9.25635 9.48908 9.25635 9.67318ZM12.5897 9.67318C12.5897 9.85727 12.4404 10.0065 12.2563 10.0065C12.0723 10.0065 11.923 9.85727 11.923 9.67318C11.923 9.48908 12.0723 9.33984 12.2563 9.33984C12.4404 9.33984 12.5897 9.48908 12.5897 9.67318Z" fill="#E2DAEC" stroke="#E2DAEC"/>
<path d="M1.35449 3.83952C1.35449 4.75999 2.10068 5.50618 3.02116 5.50618C3.94163 5.50618 4.68783 4.75999 4.68783 3.83952C4.68783 2.91904 3.94163 2.17285 3.02116 2.17285C2.10068 2.17285 1.35449 2.91904 1.35449 3.83952Z" stroke="#E2DAEC" stroke-width="1.5"/>
<path d="M1.40041 6.7137C1.08648 6.52877 0.652508 6.62149 0.537947 6.96736C-0.49336 10.081 0.229686 13.6484 2.70709 16.1258C4.71399 18.1327 8.71481 19.8244 12.2173 17.977C12.3816 17.8903 12.5002 17.8277 12.588 17.7827C12.6316 17.7603 12.6645 17.7438 12.6895 17.7317C12.7018 17.7257 12.7111 17.7214 12.7179 17.7183L12.7275 17.7141C12.8725 17.6558 12.9422 17.6392 12.9942 17.6332C13.0463 17.6271 13.1179 17.6272 13.2725 17.6507C13.317 17.6574 13.388 17.6749 13.6277 17.737L13.6418 17.7407C13.9631 17.824 14.2238 17.8915 14.434 17.9365C14.645 17.9815 14.8495 18.0142 15.0495 18.007C16.2504 17.9637 17.214 17.0002 17.2572 15.7993C17.2644 15.5993 17.2318 15.3947 17.1867 15.1837C17.1418 14.9735 17.0742 14.7128 16.9909 14.3915L16.9873 14.3774C16.9252 14.1378 16.9077 14.0667 16.9009 14.0224C16.8772 13.8666 16.877 13.7964 16.8828 13.7458C16.8886 13.6952 16.9046 13.6268 16.9628 13.4804L16.9669 13.4709C16.97 13.4641 16.9744 13.4547 16.9803 13.4422C16.9924 13.4169 17.009 13.3835 17.0315 13.3393C17.0767 13.2505 17.1396 13.1301 17.2265 12.9636C18.1461 11.2022 18.1569 9.29568 17.7124 7.61512C17.2695 5.94078 16.3641 4.44484 15.3761 3.45684C12.8987 0.979437 9.33125 0.256393 6.21759 1.28771C5.87171 1.40227 5.779 1.83624 5.96393 2.15017C6.11132 2.40039 6.41434 2.53677 6.69098 2.44846C9.35126 1.59926 12.3815 2.23002 14.4922 4.34073C15.3223 5.17087 16.1169 6.47149 16.5039 7.93478C16.8894 9.39184 16.8603 10.964 16.1184 12.3851L16.0864 12.4464C15.9434 12.7202 15.8453 12.908 15.8014 13.0182C15.7256 13.2086 15.6648 13.3946 15.6409 13.6039C15.617 13.8131 15.6343 14.0081 15.6652 14.2107C15.683 14.3277 15.7194 14.4681 15.7677 14.6543L15.7773 14.691C15.865 15.0297 15.9257 15.2643 15.9643 15.4449C16.0034 15.6279 16.0096 15.7114 16.008 15.7543C15.9884 16.3001 15.5504 16.7381 15.0045 16.7578C14.9616 16.7593 14.8781 16.7531 14.6952 16.7141C14.5145 16.6754 14.28 16.6148 13.9413 16.527L13.9046 16.5175C13.7183 16.4692 13.5777 16.4327 13.46 16.4148C13.2561 16.3839 13.0599 16.3671 12.8497 16.3915C12.6395 16.416 12.4525 16.4774 12.2611 16.5544C12.1505 16.5989 11.9646 16.697 11.6946 16.8394L11.6341 16.8713C8.79494 18.3689 5.37504 17.026 3.59097 15.242C1.48027 13.1313 0.84951 10.101 1.6987 7.44076C1.787 7.16411 1.65062 6.86109 1.40041 6.7137Z" fill="#E2DAEC"/>
</svg>
