<svg width="17" height="18" viewBox="0 0 17 18" fill="none" xmlns="http://www.w3.org/2000/svg">
<path d="M2.46756 15.7042L2.02672 16.311L2.46756 15.7042ZM1.54576 14.7824L0.939 15.2233L0.939 15.2233L1.54576 14.7824ZM14.9542 14.7824L14.3475 14.3416L14.3475 14.3416L14.9542 14.7824ZM14.0324 15.7042L13.5916 15.0975L14.0324 15.7042ZM14.0324 2.29576L13.5916 2.90253L14.0324 2.29576ZM14.9542 3.21756L14.3475 3.6584L14.9542 3.21756ZM2.46756 2.29576L2.9084 2.90253L2.46756 2.29576ZM1.54576 3.21756L2.15253 3.6584L1.54576 3.21756ZM2.41954 15.5271L1.67017 15.4962L1.66954 15.5116V15.5271H2.41954ZM14.0754 15.4354L14.825 15.4098L14.8246 15.397L14.8237 15.3841L14.0754 15.4354ZM10.8333 6.5C10.8333 7.92674 9.67674 9.08333 8.25 9.08333V10.5833C10.5052 10.5833 12.3333 8.75516 12.3333 6.5H10.8333ZM8.25 9.08333C6.82326 9.08333 5.66667 7.92674 5.66667 6.5H4.16667C4.16667 8.75516 5.99484 10.5833 8.25 10.5833V9.08333ZM5.66667 6.5C5.66667 5.07326 6.82326 3.91667 8.25 3.91667V2.41667C5.99484 2.41667 4.16667 4.24484 4.16667 6.5H5.66667ZM8.25 3.91667C9.67674 3.91667 10.8333 5.07326 10.8333 6.5H12.3333C12.3333 4.24484 10.5052 2.41667 8.25 2.41667V3.91667ZM8.25 15.75C6.67091 15.75 5.54683 15.749 4.6785 15.6549C3.82421 15.5623 3.30688 15.387 2.9084 15.0975L2.02672 16.311C2.72352 16.8173 3.53502 17.0398 4.51693 17.1462C5.48481 17.251 6.70432 17.25 8.25 17.25V15.75ZM0 9C0 10.5457 -0.00102946 11.7652 0.103834 12.7331C0.210218 13.715 0.432748 14.5265 0.939 15.2233L2.15253 14.3416C1.86301 13.9431 1.68766 13.4258 1.59511 12.5715C1.50103 11.7032 1.5 10.5791 1.5 9H0ZM15 9C15 10.5791 14.999 11.7032 14.9049 12.5715C14.8123 13.4258 14.637 13.9431 14.3475 14.3416L15.561 15.2233C16.0673 14.5265 16.2898 13.715 16.3962 12.7331C16.501 11.7652 16.5 10.5457 16.5 9H15ZM8.25 17.25C9.79568 17.25 11.0152 17.251 11.9831 17.1462C12.965 17.0398 13.7765 16.8173 14.4733 16.311L13.5916 15.0975C13.1931 15.387 12.6758 15.5623 11.8215 15.6549C10.9532 15.749 9.82909 15.75 8.25 15.75V17.25ZM8.25 2.25C9.82909 2.25 10.9532 2.25103 11.8215 2.34511C12.6758 2.43766 13.1931 2.61301 13.5916 2.90253L14.4733 1.689C13.7765 1.18275 12.965 0.960218 11.9831 0.853834C11.0152 0.748971 9.79568 0.75 8.25 0.75V2.25ZM16.5 9C16.5 7.45432 16.501 6.23481 16.3962 5.26693C16.2898 4.28502 16.0673 3.47352 15.561 2.77672L14.3475 3.6584C14.637 4.05688 14.8123 4.57421 14.9049 5.4285C14.999 6.29683 15 7.42091 15 9H16.5ZM13.5916 2.90253C13.8817 3.11326 14.1367 3.36834 14.3475 3.6584L15.561 2.77672C15.2577 2.35932 14.8907 1.99226 14.4733 1.689L13.5916 2.90253ZM8.25 0.75C6.70432 0.75 5.48481 0.748971 4.51693 0.853834C3.53502 0.960218 2.72352 1.18275 2.02672 1.689L2.9084 2.90253C3.30688 2.61301 3.82421 2.43766 4.6785 2.34511C5.54683 2.25103 6.67091 2.25 8.25 2.25V0.75ZM1.5 9C1.5 7.42091 1.50103 6.29683 1.59511 5.4285C1.68766 4.57421 1.86301 4.05688 2.15253 3.6584L0.939 2.77672C0.432748 3.47352 0.210218 4.28502 0.103834 5.26693C-0.00102946 6.23481 0 7.45432 0 9H1.5ZM2.02672 1.689C1.60932 1.99226 1.24226 2.35932 0.939 2.77672L2.15253 3.6584C2.36326 3.36834 2.61834 3.11326 2.9084 2.90253L2.02672 1.689ZM5.75 13.0833H10.75V11.5833H5.75V13.0833ZM5.75 11.5833C3.55194 11.5833 1.75983 13.3198 1.67017 15.4962L3.1689 15.5579C3.22558 14.1819 4.35969 13.0833 5.75 13.0833V11.5833ZM2.9084 15.0975C2.89521 15.0879 2.88208 15.0782 2.86902 15.0684L1.97005 16.2692C1.98883 16.2833 2.00772 16.2972 2.02672 16.311L2.9084 15.0975ZM2.86902 15.0684C2.59522 14.8634 2.35367 14.6185 2.15253 14.3416L0.939 15.2233C1.22846 15.6217 1.57605 15.9742 1.97005 16.2692L2.86902 15.0684ZM1.66954 15.5271V15.6688H3.16954V15.5271H1.66954ZM10.75 13.0833C12.1162 13.0833 13.2352 14.1443 13.3272 15.4867L14.8237 15.3841C14.6782 13.2604 12.9102 11.5833 10.75 11.5833V13.0833ZM14.3475 14.3416C14.1469 14.6177 13.9062 14.862 13.6333 15.0667L14.5333 16.2667C14.9259 15.9722 15.2724 15.6205 15.561 15.2233L14.3475 14.3416ZM13.6333 15.0667C13.6195 15.077 13.6056 15.0873 13.5916 15.0975L14.4733 16.311C14.4934 16.2964 14.5134 16.2816 14.5333 16.2667L13.6333 15.0667ZM13.3259 15.461L13.3338 15.6923L14.8329 15.6411L14.825 15.4098L13.3259 15.461Z" fill="#E2DAEC"/>
</svg>
