<svg width="21" height="22" viewBox="0 0 21 22" fill="none" xmlns="http://www.w3.org/2000/svg">
<path d="M9.32064 2.74686C9.7698 2.16936 10.6426 2.16936 11.0918 2.74686C11.6751 3.49681 12.6858 3.76763 13.5659 3.40979C14.2436 3.13424 14.9995 3.57065 15.0997 4.29535C15.2299 5.23647 15.9698 5.97636 16.9109 6.10652C17.6356 6.20675 18.072 6.96264 17.7964 7.64036C17.4386 8.52048 17.7094 9.53118 18.4594 10.1145C19.0369 10.5636 19.0369 11.4364 18.4594 11.8856C17.7094 12.4689 17.4386 13.4796 17.7964 14.3597C18.072 15.0374 17.6356 15.7933 16.9109 15.8935C15.9698 16.0237 15.2299 16.7636 15.0997 17.7047C14.9995 18.4294 14.2436 18.8658 13.5659 18.5903C12.6858 18.2324 11.6751 18.5033 11.0918 19.2532C10.6426 19.8307 9.7698 19.8307 9.32064 19.2532C8.73736 18.5033 7.72665 18.2324 6.84654 18.5903C6.16882 18.8658 5.41293 18.4294 5.3127 17.7047C5.18254 16.7636 4.44265 16.0237 3.50153 15.8935C2.77683 15.7933 2.34042 15.0374 2.61597 14.3597C2.9738 13.4796 2.70299 12.4689 1.95303 11.8856C1.37554 11.4364 1.37554 10.5636 1.95303 10.1145C2.70299 9.53118 2.9738 8.52048 2.61597 7.64036C2.34042 6.96264 2.77683 6.20675 3.50153 6.10652C4.44265 5.97636 5.18254 5.23647 5.3127 4.29535C5.41293 3.57065 6.16882 3.13424 6.84654 3.40979C7.72665 3.76763 8.73736 3.49681 9.32064 2.74686Z" fill="#0B0B0E" stroke="#726C7D"/>
<path d="M6.92516 10.8687L8.36879 12.601C8.74524 13.0528 9.42832 13.0837 9.84412 12.6679L13.3591 9.15294" stroke="#726C7D" stroke-width="1.5" stroke-linecap="round"/>
</svg>
