<svg width="95" height="95" viewBox="0 0 95 95" fill="none" xmlns="http://www.w3.org/2000/svg">
<path d="M0 6.34674C0 2.84153 2.84153 0 6.34674 0H39.2589C43.2946 0 46.3054 3.71711 45.4673 7.66483L36.4297 50.233C35.4758 54.7262 39.463 58.7134 43.9562 57.7595L86.5244 48.7219C90.4721 47.8838 94.1892 50.8946 94.1892 54.9303V87.8425C94.1892 91.3477 91.3477 94.1892 87.8425 94.1892H47.0946H6.34674C2.84153 94.1892 0 91.3477 0 87.8425V47.0946V6.34674Z" fill="#E2DAEC"/>
<path d="M65.0101 1.99559C65.4922 0.79032 66.6595 0 67.9576 0H91.0147C92.768 0 94.1894 1.42132 94.1894 3.17462V26.2317C94.1894 27.5299 93.399 28.6972 92.1938 29.1793L53.7652 44.5507C51.1737 45.5873 48.602 43.0156 49.6386 40.4241L65.0101 1.99559Z" fill="#726C7D"/>
</svg>
