<svg width="95" height="95" viewBox="0 0 95 95" fill="none" xmlns="http://www.w3.org/2000/svg">
<path d="M0.188965 6.34674C0.188965 2.84153 3.0305 0 6.53571 0H39.4479C43.4836 0 46.4944 3.71711 45.6563 7.66483L36.6187 50.233C35.6647 54.7262 39.6519 58.7134 44.1451 57.7595L86.7133 48.7219C90.661 47.8838 94.3782 50.8946 94.3782 54.9303V87.8425C94.3782 91.3477 91.5366 94.1892 88.0314 94.1892H47.2836H6.5357C3.03049 94.1892 0.188965 91.3477 0.188965 87.8425V47.0946V6.34674Z" fill="#E2DAEC"/>
<path d="M65.199 1.99559C65.6811 0.79032 66.8485 0 68.1466 0H91.2037C92.957 0 94.3783 1.42132 94.3783 3.17462V26.2317C94.3783 27.5299 93.588 28.6972 92.3827 29.1793L53.9542 44.5507C51.3627 45.5873 48.791 43.0156 49.8276 40.4241L65.199 1.99559Z" fill="#E2DAEC"/>
</svg>
