<svg width="95" height="95" viewBox="0 0 95 95" fill="none" xmlns="http://www.w3.org/2000/svg">
<path d="M0.135254 6.34674C0.135254 2.84153 2.97679 0 6.482 0H39.3942C43.4299 0 46.4407 3.71711 45.6026 7.66483L36.565 50.233C35.611 54.7262 39.5982 58.7134 44.0914 57.7595L86.6596 48.7219C90.6073 47.8838 94.3244 50.8946 94.3244 54.9303V87.8425C94.3244 91.3477 91.4829 94.1892 87.9777 94.1892H47.2299H6.48199C2.97678 94.1892 0.135254 91.3477 0.135254 87.8425V47.0946V6.34674Z" fill="#E2DAEC"/>
<path d="M65.1453 1.99559C65.6274 0.79032 66.7948 0 68.0929 0H91.15C92.9033 0 94.3246 1.42132 94.3246 3.17462V26.2317C94.3246 27.5299 93.5343 28.6972 92.329 29.1793L53.9005 44.5507C51.309 45.5873 48.7373 43.0156 49.7739 40.4241L65.1453 1.99559Z" fill="url(#paint0_linear_81_10201)"/>
<defs>
<linearGradient id="paint0_linear_81_10201" x1="92.0199" y1="1.88405" x2="55.7215" y2="11.0281" gradientUnits="userSpaceOnUse">
<stop stop-color="#E9525F"/>
<stop offset="1" stop-color="#EF7D85"/>
</linearGradient>
</defs>
</svg>
