<svg width="11" height="15" viewBox="0 0 11 15" fill="none" xmlns="http://www.w3.org/2000/svg">
<path fill-rule="evenodd" clip-rule="evenodd" d="M5.5 4.10547C4.20558 4.10547 3.15625 5.1548 3.15625 6.44922C3.15625 7.74364 4.20558 8.79297 5.5 8.79297C6.79442 8.79297 7.84375 7.74364 7.84375 6.44922C7.84375 5.1548 6.79442 4.10547 5.5 4.10547ZM4.09375 6.44922C4.09375 5.67257 4.72335 5.04297 5.5 5.04297C6.27665 5.04297 6.90625 5.67257 6.90625 6.44922C6.90625 7.22587 6.27665 7.85547 5.5 7.85547C4.72335 7.85547 4.09375 7.22587 4.09375 6.44922Z" fill="white"/>
<path fill-rule="evenodd" clip-rule="evenodd" d="M5.5 0.355469C2.44791 0.355469 0.03125 3.0072 0.03125 6.20465C0.03125 7.23011 0.540691 8.43762 1.18165 9.5708C1.83298 10.7223 2.6643 11.8719 3.39315 12.8013L3.41746 12.8323C3.77321 13.286 4.07627 13.6725 4.37015 13.9395C4.69077 14.2307 5.04434 14.4214 5.5 14.4214C5.95566 14.4214 6.30923 14.2307 6.62985 13.9395C6.92373 13.6725 7.22679 13.286 7.58255 12.8323L7.60685 12.8013C8.3357 11.8719 9.16702 10.7223 9.81835 9.5708C10.4593 8.43762 10.9688 7.23011 10.9688 6.20465C10.9688 3.0072 8.55209 0.355469 5.5 0.355469ZM0.96875 6.20465C0.96875 3.45904 3.02924 1.29297 5.5 1.29297C7.97076 1.29297 10.0312 3.45904 10.0312 6.20465C10.0312 6.97121 9.63149 7.99695 9.00234 9.10924C8.38357 10.2032 7.58389 11.3113 6.86914 12.2228C6.48229 12.7161 6.22758 13.0383 5.99949 13.2455C5.79147 13.4345 5.65261 13.4839 5.5 13.4839C5.34739 13.4839 5.20853 13.4345 5.00051 13.2455C4.77242 13.0383 4.51771 12.7161 4.13086 12.2228C3.41611 11.3113 2.61643 10.2032 1.99766 9.10924C1.36851 7.99695 0.96875 6.97121 0.96875 6.20465Z" fill="white"/>
</svg>
