<svg width="21" height="22" viewBox="0 0 21 22" fill="none" xmlns="http://www.w3.org/2000/svg">
<path d="M9.61204 2.51663C10.2113 1.7461 11.3759 1.7461 11.9752 2.51663C12.4554 3.13404 13.2875 3.357 14.012 3.0624C14.9163 2.69475 15.9248 3.27704 16.0586 4.24398C16.1657 5.01877 16.7749 5.6279 17.5497 5.73506C18.5166 5.86879 19.0989 6.87734 18.7312 7.7816C18.4366 8.50617 18.6596 9.33826 19.277 9.81846C20.0475 10.4177 20.0475 11.5823 19.277 12.1816C18.6596 12.6618 18.4366 13.4939 18.7312 14.2185C19.0989 15.1227 18.5166 16.1313 17.5497 16.265C16.7749 16.3722 16.1657 16.9813 16.0586 17.7561C15.9248 18.723 14.9163 19.3053 14.012 18.9377C13.2875 18.6431 12.4554 18.866 11.9752 19.4834C11.3759 20.254 10.2113 20.254 9.61204 19.4834C9.13184 18.866 8.29975 18.6431 7.57518 18.9377C6.67092 19.3053 5.66237 18.723 5.52864 17.7561C5.42148 16.9813 4.81235 16.3722 4.03756 16.265C3.07062 16.1313 2.48833 15.1227 2.85598 14.2185C3.15058 13.4939 2.92762 12.6618 2.31021 12.1816C1.53968 11.5823 1.53968 10.4177 2.31021 9.81846C2.92762 9.33826 3.15058 8.50617 2.85598 7.7816C2.48833 6.87734 3.07062 5.86879 4.03756 5.73506C4.81235 5.6279 5.42148 5.01877 5.52864 4.24398C5.66237 3.27704 6.67092 2.69475 7.57518 3.0624C8.29975 3.357 9.13184 3.13404 9.61204 2.51663Z" fill="#2B8BFB" stroke="url(#paint0_linear_73_7676)" stroke-width="0.25"/>
<path d="M7.51256 10.8687L8.95619 12.601C9.33264 13.0528 10.0157 13.0837 10.4315 12.6679L13.9465 9.15294" stroke="#EFFFFF" stroke-width="1.5" stroke-linecap="round"/>
<defs>
<linearGradient id="paint0_linear_73_7676" x1="19.9494" y1="1.65253" x2="3.40544" y2="5.82015" gradientUnits="userSpaceOnUse">
<stop stop-color="#E9525F"/>
<stop offset="1" stop-color="#EF7D85"/>
</linearGradient>
</defs>
</svg>
