<svg width="20" height="20" viewBox="0 0 20 20" fill="none" xmlns="http://www.w3.org/2000/svg">
<g clip-path="url(#clip0_16_4510)">
<path d="M13.3331 7.49993L10.4468 10.9635C9.85339 11.6755 9.55671 12.0316 9.1664 12.0316C8.77608 12.0316 8.4794 11.6755 7.88603 10.9635L6.6664 9.49993M4.66208 4.18241C5.95188 4.50572 7.26553 3.74728 7.63044 2.46863C8.31069 0.085001 11.6888 0.085001 12.369 2.46863C12.7339 3.74728 14.0476 4.50572 15.3374 4.18241C17.7418 3.57972 19.4308 6.50521 17.7067 8.28614C16.7818 9.24149 16.7818 10.7584 17.7067 11.7137C19.4308 13.4946 17.7418 16.4201 15.3374 15.8174C14.0476 15.4941 12.7339 16.2526 12.369 17.5312C11.6888 19.9149 8.31069 19.9149 7.63044 17.5312C7.26553 16.2526 5.95188 15.4941 4.66208 15.8174C2.25767 16.4201 0.568633 13.4946 2.29279 11.7137C3.21767 10.7584 3.21768 9.24149 2.29279 8.28615C0.568633 6.50521 2.25767 3.57972 4.66208 4.18241Z" stroke="#726C7D" stroke-width="1.5" stroke-linecap="round"/>
</g>
<defs>
<clipPath id="clip0_16_4510">
<rect width="20" height="20" fill="white"/>
</clipPath>
</defs>
</svg>
