<svg width="17" height="17" viewBox="0 0 17 17" fill="none" xmlns="http://www.w3.org/2000/svg">
<path d="M11.3335 6.37496L8.88014 9.31899C8.37578 9.92423 8.12359 10.2268 7.79183 10.2268C7.46006 10.2268 7.20788 9.92423 6.70351 9.31899L5.66683 8.07496M3.96316 3.55508C5.05948 3.82988 6.17609 3.18521 6.48626 2.09836C7.06448 0.0722753 9.93584 0.0722753 10.5141 2.09836C10.8242 3.18521 11.9408 3.82988 13.0372 3.55508C15.0809 3.04278 16.5166 5.52945 15.0511 7.04325C14.2649 7.85529 14.2649 9.14464 15.0511 9.95668C16.5166 11.4705 15.0809 13.9571 13.0372 13.4449C11.9408 13.17 10.8242 13.8147 10.5141 14.9016C9.93584 16.9277 7.06448 16.9277 6.48626 14.9016C6.17609 13.8147 5.05948 13.17 3.96316 13.4449C1.91941 13.9571 0.483728 11.4705 1.94926 9.95668C2.73541 9.14464 2.73541 7.85529 1.94926 7.04325C0.483729 5.52945 1.91941 3.04278 3.96316 3.55508Z" stroke="white" stroke-linecap="round"/>
</svg>
