<svg width="20" height="20" viewBox="0 0 20 20" fill="none" xmlns="http://www.w3.org/2000/svg">
<g clip-path="url(#clip0_16_4494)">
<path d="M13.3331 7.49999L10.4468 10.9635C9.85339 11.6756 9.55671 12.0316 9.1664 12.0316C8.77608 12.0316 8.4794 11.6756 7.88603 10.9635L6.6664 9.49999M4.66208 4.18247C5.95188 4.50578 7.26553 3.74734 7.63044 2.46869C8.31069 0.085062 11.6888 0.085062 12.369 2.46869C12.7339 3.74734 14.0476 4.50578 15.3374 4.18247C17.7418 3.57978 19.4308 6.50527 17.7067 8.28621C16.7818 9.24155 16.7818 10.7584 17.7067 11.7138C19.4308 13.4947 17.7418 16.4202 15.3374 15.8175C14.0476 15.4942 12.7339 16.2526 12.369 17.5313C11.6888 19.9149 8.31069 19.9149 7.63044 17.5313C7.26553 16.2526 5.95188 15.4942 4.66208 15.8175C2.25767 16.4202 0.568633 13.4947 2.29279 11.7138C3.21767 10.7584 3.21768 9.24155 2.29279 8.28621C0.568633 6.50527 2.25767 3.57978 4.66208 4.18247Z" stroke="white" stroke-width="1.5" stroke-linecap="round"/>
</g>
<defs>
<clipPath id="clip0_16_4494">
<rect width="20" height="20" fill="white"/>
</clipPath>
</defs>
</svg>
